<svg version="1.1" id="Layer_2" xmlns="http://www.w3.org/2000/svg" xmlns:xlink="http://www.w3.org/1999/xlink" x="0px" y="0px"
		 width="100%" height="100%" viewBox="0 0 1129.592 642.002" enable-background="new 0 0 1129.592 642.002"
		 xml:space="preserve">



		<g>
			<path class="path"  stroke="#03e9e1" stroke-width="0.2" fill="none" d="M575.826,232.717c-40.886,6.746-81.647,14.483-121.51,25.938c-42.026,12.077-84.47,28.214-119.537,54.919
				c-27.194,20.709-49.369,50.156-52.848,85.025c-1.862,18.658,3.484,36.793,15.378,51.293
				c13.282,16.193,32.555,26.633,51.739,34.209c25.519,10.076,52.811,15.494,79.922,19.098c68.526,9.111,138.731,6.395,207.301-0.75
				c69.822-7.275,139.569-19.869,206.871-40.012c27.06-8.1,53.87-17.533,79.39-29.703c18.202-8.68,36.672-18.902,51.008-33.324
				c16.393-16.49,26.778-41.131,13.852-62.65c-6.835-11.377-18.108-19.709-29.319-26.391c-14.007-8.347-29.334-14.428-44.751-19.605
				c-31.518-10.584-64.467-17.203-97.366-21.706c-44.65-6.11-90.154-4.955-135.034-2.481
				c-69.018,3.805-137.457,13.962-205.352,26.629c-56.586,10.557-115.342,23.635-164.128,55.672
				c-20.067,13.18-40.711,32.705-39.763,58.701c0.941,25.813,26.553,43.398,47.39,53.74c47.459,23.559,104.28,21.889,155.688,17.582
				c65.329-5.473,130.277-21.219,189.739-49.074c22.331-10.463,44.955-22.617,63.212-39.432
				c15.739-14.496,26.511-34.137,19.433-55.693c-7.158-21.797-27.89-36.827-46.975-47.604c-20.491-11.57-42.84-19.551-65.088-26.991
				c-60.32-20.171-129.318-26.36-191.554-11.657c-32.07,7.577-62.962,23.91-90.882,40.945c-31.056,18.948-63.366,42.69-81.979,74.706
				c-7.27,12.502-11.686,26.832-9.954,41.375c1.937,16.266,12.116,29.914,24.039,40.51c38.633,34.328,95.463,37.732,144.592,35.711
				c26.297-1.082,52.398-4.422,78.505-7.584c33.231-4.025,66.268-9.658,98.959-16.85c63.934-14.063,126.627-34.65,185.584-63.219
				c39.647-19.213,86.146-45.09,102.123-88.941c18.47-50.693-20.865-96.652-58.898-124.831
				c-91.51-67.801-211.188-80.84-321.219-66.411c-109.961,14.42-216.664,54.724-312.557,109.749
				c-55.809,32.024-172.17,105.626-105.418,180.255c26.747,29.904,69.898,41.883,107.837,49.305
				c40.62,7.947,82.038,10.166,123.282,12.336c137.591,7.232,275.547-4.596,410.168-33.818
				c56.362-12.234,112.953-26.297,167.121-46.264c50.667-18.678,101.479-44.074,139.221-83.582
				c17.333-18.143,31.324-42.529,23.452-68.165c-7.469-24.322-30.416-41.536-51.15-54.204c-28.754-17.567-60.748-29.783-92.665-40.22
				c-32.194-10.527-65.079-18.938-98.181-26.074c-89.697-19.336-182.172-25.99-273.712-19.189
				c-65.525,4.868-130.263,17.776-192.393,39.21c-50.207,17.32-99.289,40.397-141.334,73.19
				c-36.843,28.734-68.548,67.04-82.109,112.395c-8.138,27.219-7.962,56.039,6.062,81.299c13.686,24.648,37.694,41.947,62.252,54.648
				c29.591,15.303,62.021,24.865,94.434,32.047c64.699,14.336,131.938,19.359,198.122,18.42c46.002-0.652,92.143-5.188,137.606-12.01
				c63.477-9.525,126.488-25.395,184.993-52.182c43.87-20.084,92.918-51.365,108.8-99.596
				c16.912-51.36-15.141-101.752-53.182-133.676c-44.694-37.507-102.07-59.584-159.242-68.583
				c-62.373-9.818-126.899-3.411-186.885,15.783c-54.844,17.548-106.678,45.971-149.53,84.574
				c-38.334,34.533-72.86,79.813-81.42,131.873c-3.702,22.514-1.493,45.986,8.624,66.6c10.902,22.215,30.578,37.537,52.371,48.246
				c51.261,25.191,111.824,25.254,167.335,18.844c58.269-6.727,116.195-21.043,171.874-39.25
				c58.911-19.264,116.387-45.141,166.372-82.164c40.887-30.283,89.329-78.66,76.649-134.663
				c-10.557-46.622-57.142-68.765-100.231-76.018c-53.093-8.936-109.16-0.166-160.467,14.11
				c-63.104,17.558-122.675,46.585-178.584,80.362c-44.823,27.08-88.974,57.08-129.109,90.777
				c-36.124,30.328-74.551,68.145-86.031,115.564c-5.58,23.049-2.424,47.584,18.321,61.711
				c20.518,13.973,48.422,15.316,72.381,14.984c34.619-0.479,69.152-6.432,102.911-13.723c36.267-7.832,72.058-17.852,107.423-29.037
				c50.717-16.041,101.918-32.98,147.512-60.85c37.704-23.047,73.049-50.592,104.002-82.154
				c29.56-30.143,56.829-65.947,68.057-107.28c5.023-18.496,5.952-37.957,1.836-56.711c-4.568-20.814-15.749-39.459-29.798-55.25
				c-35.235-39.604-88.369-55.422-139.516-60.648c-56.116-5.734-113.754-0.268-169.117,9.387
				c-65.208,11.372-129.067,30.103-189.857,56.333c-50.521,21.8-100.165,48.608-142.569,83.992
				c-35.583,29.693-70.189,70.623-68.248,119.734c1.836,46.447,35.965,80.436,75.014,100.684
				c40.503,21.004,86.589,30.455,131.588,35.572c65.902,7.496,133.006,3.432,197.863-10.102
				c56.884-11.869,113.455-31.16,164.307-59.553c42.333-23.639,83.7-57.127,99.341-104.73
				c18.429-56.088-14.201-109.305-53.489-147.164c-43.289-41.714-98.374-70.926-155.053-89.89
				C571.179,59.525,508.839,51.008,447.241,52.93C328.428,56.636,210.27,100.022,118.46,175.692
				c-35.47,29.234-71.854,64.473-88.844,108.126c-7.622,19.583-9.546,41.037-2.274,61.004c6.616,18.162,20.05,32.717,36.681,42.221
				c36.163,20.67,82.744,19.389,122.823,15.514c44.049-4.258,87.87-13.854,130.559-25.283
				c60.516-16.203,119.772-38.148,175.071-67.723c26.917-14.395,52.771-30.815,76.99-49.403
				c23.033-17.678,44.518-38.262,59.531-63.33c14.396-24.037,19.712-52.268,7.587-78.361c-10.655-22.933-32.144-40.319-54.102-51.797
				c-43.847-22.92-96.844-26.578-145.366-22.971c-57.979,4.31-114.913,21.974-166.068,49.38
				c-47.411,25.401-92.793,60.647-123.283,105.465c-21.843,32.107-41.813,79.628-14.98,114.71
				c14.716,19.24,39.669,28.523,62.514,33.584c27.238,6.037,55.705,5.326,83.224,1.801c54.196-6.939,106.666-25.717,156.436-47.678
				c44.536-19.653,88.853-42.91,125.072-75.895c32.139-29.268,62.396-74.833,49.792-120.306
				c-11.938-43.068-59.007-67.325-98.087-80.476C456.233,5.595,394.48,5.948,337.24,15.342
				c-60.093,9.862-119.131,31.203-171.79,61.77C83.396,124.742-12.922,209.18,2.408,314.695
				c12.955,89.164,110.321,124.074,187.427,137.906c50.345,9.033,101.754,10.939,152.798,9.824
				c69.11-1.51,137.979-9.902,205.832-22.895c68.376-13.094,135.755-31.18,201.947-52.684
				c51.767-16.816,103.596-33.961,153.943-54.709c50.405-20.77,99.836-45.571,143.098-79.045
				c20.316-15.72,39.01-33.596,54.962-53.754c15.454-19.531,29.133-43.075,27.288-68.903c-3.535-49.472-54.5-79.378-95.997-95.044
				C975.092,13.264,910.637,4.773,848.362,2.395c-65.669-2.508-131.507,3.018-196.39,12.981
				c-64.646,9.926-128.986,24.138-191.846,42.196c-66.027,18.968-132.206,42.959-192.83,75.54
				c-49.925,26.831-100.348,56.972-136.819,101.269c-15.879,19.287-29.413,41.794-33.611,66.731
				c-3.278,19.473,0.78,39.082,10.257,56.268c20.854,37.814,62.972,61.385,101.33,77.781
				c52.438,22.412,109.941,33.711,166.278,40.705c67.094,8.332,135.145,8.502,202.421,2.254
				c61.117-5.676,122.212-16.584,181.054-34.199c52.295-15.654,103.387-37.625,147.603-70.002
				c42.605-31.197,78.884-73.264,94.131-124.544c14.608-49.131,6.783-103.106-27.341-142.345
				c-34.065-39.171-86.757-58.541-136.893-65.631c-53.11-7.51-107.613-2.298-160.011,7.822
				c-51.552,9.957-102.229,25.272-151.252,43.98c-52.983,20.219-104.285,45.289-151.885,76.184
				c-46.803,30.377-90.027,67.009-124.617,110.969c-35.09,44.597-67.998,103.298-39.996,159.736
				c23.247,46.855,81.569,65.156,128.838,75.553c64.561,14.201,131.589,14.59,197.135,8.203
				c65.993-6.43,131.127-20.23,195.142-37.234c53.337-14.168,106.582-30.021,157.539-51.354
				c83.853-35.105,224.459-118.336,170.373-229.102c-12.076-24.731-32.498-43.728-54.501-59.633
				c-22.151-16.012-46.876-28.231-72.501-37.589c-52.732-19.256-109.579-25.792-165.438-26.316
				c-120.489-1.13-241.897,25.631-352.168,73.702c-56.965,24.833-111.218,56.101-160.651,93.796
				c-39.085,29.804-75.436,64.831-102.15,106.343c-24.603,38.232-40.508,86.572-17.373,129.287
				c11.67,21.547,31.592,37.969,52.157,50.646c20.535,12.66,43.306,21.406,66.523,27.705
				c49.631,13.461,101.994,15.475,153.134,13.688c50.971-1.779,101.904-7.717,152.317-15.266
				c120.78-18.088,244.245-50.203,346.582-119.34c43.911-29.666,84.429-70.76,98.456-123.268
				c14.223-53.239-6.977-107.91-44.373-146.303c-36.082-37.042-85.979-59.403-136.246-69.05
				c-60.953-11.698-124.821-5.181-184.354,10.795c-59.42,15.946-116.407,42.169-168.252,75.164
				c-42.198,26.856-82.923,57.492-116.334,94.941c-30.882,34.612-57.898,80.085-51.475,128.282
				c5.366,40.264,39.406,63.721,75.513,75.225c37.524,11.959,78.586,14.303,117.736,12.916c64.922-2.301,129.49-14.621,191.147-34.91
				c56.212-18.498,110.964-43.963,159.508-77.998c41.055-28.785,81.984-67.492,93.405-118.228
				c5.338-23.709,2.566-48.501-10.787-69.086c-12.479-19.236-32.817-32.109-53.896-40.104c-25.578-9.701-53.43-11.502-80.536-10.562
				c-32.152,1.115-64.001,7.475-94.765,16.662c-53.267,15.907-104.141,41.227-151.546,70.092
				c-21.263,12.947-41.788,27.42-59.807,44.661c-16.123,15.426-30.402,33.88-36.746,55.56c-3.557,12.156-5.143,26.994,0.676,38.758
				c4.646,9.396,13.176,15.352,22.835,18.869c12.145,4.422,25.521,5.123,38.324,4.875c16.369-0.316,32.681-2.719,48.728-5.836
				c34.791-6.76,68.88-17.48,101.983-30.043c13.474-5.113,26.817-10.613,39.866-16.732c8.613-4.039,17.188-8.277,24.856-13.947
				c16.25-12.016,35.903-28.133,41.927-48.289c6.792-22.726-12.843-37.344-32.181-43.923c-23.425-7.969-49.764-6.206-73.853-2.857
				c-23.287,3.236-46.666,8.625-69.132,15.559c-17.758,5.481-35.423,11.22-52.535,18.513c-18.229,7.769-37.191,17.386-50.627,32.332
				c-9.735,10.83-15.769,27.641-5.494,40.139c10.039,12.213,29.705,14.547,44.327,15.822c15.829,1.381,31.694,0.564,47.531-0.139
				c33.009-1.467,66.427-8.359,98.251-16.902c51.284-13.766,101.465-34.76,145.869-64.094c16.908-11.17,34.692-24.565,44.597-42.692
				c7.623-13.951,6.482-31.656-6.04-42.382c-12.628-10.817-32.244-10.845-47.853-9.777c-19.146,1.31-38.087,5.773-56.477,11.083
				c-43.789,12.643-86.276,32.968-121.952,61.512c-19.506,15.606-36.829,34.403-48.502,56.615
				c-10.325,19.646-16.195,43.033-8.551,64.59c13.793,38.895,63.419,53.262,100.094,57.369c27.171,3.045,55.671,0.314,82.482-4.438
				c29.572-5.242,58.42-13.826,86.136-25.379c48.263-20.119,97.105-49.75,128.536-92.459c12.165-16.53,22.51-36.104,23.688-56.954
				c1.201-21.233-10.778-38.301-28.289-49.172c-21.597-13.408-48.434-18.449-73.525-18.86c-28.553-0.467-56.857,4.438-84.341,11.892
				c-47.257,12.818-92.846,33.121-134.548,58.712c-19.913,12.221-39.247,25.837-56.414,41.736
				c-16.266,15.063-31.262,32.397-39.545,53.22c-7.152,17.98-7.39,38.734,1.313,56.256c8.241,16.594,22.925,27.771,39.662,34.994
				c36.758,15.861,80.483,14.908,119.576,11.281c49.381-4.582,98.774-17.275,143.682-38.414
				c24.446-11.506,47.559-26.111,67.543-44.355c18.631-17.01,35.324-37.844,42.912-62.207c6.581-21.132,4.624-43.938-5.976-63.386
				c-12.364-22.684-35.191-36.931-58.686-45.947c-54.334-20.852-116.496-12.703-170.597,4.533
				c-47.735,15.209-92.731,39.695-130.977,72.112c-34.485,29.23-68.957,71.25-65.484,119.341c1.425,19.723,8.78,38.031,23.16,51.832
				c13.105,12.58,30.496,19.811,47.885,24.162c37.475,9.375,78.277,6.6,115.873-0.645c42.153-8.121,83.347-24.51,120.143-46.5
				c37.971-22.693,74.563-54.662,88.949-97.797c6.485-19.447,7.616-40.96,2.733-60.893c-4.45-18.166-14.667-34.261-27.674-47.51
				c-28.402-28.931-68.777-44.652-107.096-55.325c-40.884-11.389-83.264-16.937-125.577-19.151
				c-117.375-6.144-242.636,13.924-344.499,75.202c-44.48,26.758-88.344,68.243-96.979,121.85
				c-8.915,55.344,33.268,99.238,78.024,124.316c45.171,25.311,98.263,34.508,149.546,34.367
				c51.438-0.143,102.818-10.258,149.932-31.01c48.104-21.188,92.347-53.393,123.941-95.701
				c30.693-41.102,47.532-93.378,41.806-144.776c-5.29-47.469-32.379-89.278-70.471-117.285
				c-42.266-31.075-94.516-42.255-146.213-41.729c-60.53,0.615-120.021,18.084-174.373,43.935
				c-53.898,25.633-103.307,60.31-147.263,100.559c-34.898,31.956-66.524,68.723-90.27,109.758
				c-22.76,39.33-39.455,87.676-23.762,132.584c17.708,50.676,69.278,75.041,118.438,85.078
				c63.985,13.064,131.472,10.205,195.827,1.762c63.806-8.373,126.704-23.428,188.671-40.564
				c55.521-15.352,110.364-33.377,163.61-55.408c53.298-22.051,105.033-48.398,152.715-80.963
				c22.854-15.607,44.634-32.793,64.95-51.588c21.1-19.521,41.138-40.812,55.814-65.673c15.06-25.511,22.051-54.283,15.484-83.51
				c-5.6-24.926-21.983-45.752-40.955-62.144c-19.75-17.063-43.067-29.798-66.797-40.398c-28.283-12.634-57.989-22.146-88.057-29.481
				c-121.141-29.552-250.139-21.65-371.249,3.782c-113.71,23.878-225.212,67.361-322.08,131.943
				c-48.118,32.081-92.444,70.062-130.093,114.03C55.35,323.51,28.025,365.545,14.203,413.33
				c-11.808,40.82-12.386,85.787,7.579,124.182c23.649,45.477,71.331,69.498,118.224,84.402
				c55.618,17.678,114.818,21.943,172.854,19.711c60.751-2.338,121.069-12.25,180.332-25.445
				c54.414-12.117,108.239-27.102,161.384-43.906c51.868-16.4,103.096-35.098,152.497-57.941
				c49.651-22.961,97.585-50.422,140.229-84.844c20.368-16.443,39.338-34.633,56.328-54.555
				c18.084-21.201,34.103-44.389,43.344-70.863c17.367-49.752,4.554-102.203-25.98-143.824
				c-34.055-46.419-86.176-76.903-138.483-98.641C772.142,15.738,647.175,10.31,529.903,25.943
				C423.45,40.135,315.575,71.254,223.146,126.917c-45.718,27.532-87.53,62.252-119.704,105.051
				c-15.543,20.676-28.338,43.47-33.083,69.153c-3.919,21.215-1.028,43.041,8.041,62.578c20.241,43.604,66.86,69.18,110.984,82.404
				c60.117,18.018,124.42,22.547,186.859,19.945c64.523-2.689,128.676-13.98,190.734-31.658
				c46.994-13.385,93.625-30.271,136.722-53.486c38.443-20.707,76.784-47.994,98.673-86.749
				c21.915-38.801,18.987-85.494-4.529-122.853c-24.4-38.763-66.448-63.877-107.813-81.014
				c-46.424-19.232-96.458-29.237-146.542-31.748c-119.057-5.968-242.81,31.322-338.52,102.466
				C125.569,220.028,37.063,327.398,90.828,430.904c20.927,40.287,60.69,66.057,102.109,81.682
				c43.083,16.254,89.75,22.842,135.588,24.273c119.534,3.73,243.319-29.6,342.824-96.348
				c41.449-27.803,80.691-64.619,104.727-108.793c11.326-20.818,18.49-44.327,16.378-68.194
				c-1.998-22.58-13.551-44.021-29.856-59.518c-30.245-28.743-75.548-33.978-115.38-32.405
				c-42.285,1.669-84.384,11.32-124.484,24.473c-48.085,15.771-94.628,36.31-138.104,62.267
				c-44.483,26.557-86.375,59.406-117.901,100.857c-14.894,19.582-26.944,41.242-35.153,64.451
				c-6.588,18.627-9.229,38.84-4.648,58.232c8.471,35.859,40.976,58.824,72.784,72.99c36.175,16.111,76.218,23.867,115.48,27.439
				c63.131,5.744,127.194,3.098,190.047-4.455c118.396-14.227,234.479-47.805,343.77-95.18
				c34.678-15.031,68.813-31.766,100.693-52.141c29.027-18.551,62.499-42.607,75.018-76.213c5.15-13.826,4.658-28.613-1.403-42.049
				c-9.242-20.485-30.855-31.62-51.2-38.238c-24.723-8.042-51.459-10.944-77.29-12.429c-34.487-1.982-69.137,0.188-103.35,4.667
				c-60.865,7.968-121.373,23.185-179.914,41.488c-55.806,17.449-110.467,39.396-161.441,68.174
				c-47.791,26.98-95.231,61.008-128.565,105.207c-15.334,20.332-28.148,47.314-15.323,72.104
				c10.732,20.746,34.661,30.549,56.001,36.131c26.593,6.957,54.718,9.113,82.08,10.088c33.82,1.205,67.711-0.793,101.31-4.65
				c67.513-7.752,133.573-23.947,199.006-41.857c41.839-11.453,84.07-24.432,120.338-48.957c0.091-0.063,0.115-0.176,0.026-0.248
				c-8.517-6.98-20.313-7.793-30.877-7.916c-12.797-0.15-25.503,1.791-38.288,1.879c-0.274,0.002-0.371,0.354-0.043,0.352
				c11.764-0.082,23.47-1.645,35.234-1.867c6.342-0.119,12.689,0.211,18.931,1.375c2.984,0.557,5.864,1.484,8.65,2.676
				c1.483,0.635,2.827,1.459,4.165,2.34c2.584,1.701-1.602,3.518-2.951,4.396c-28.269,18.389-60.535,29.73-92.676,39.248
				c-65.713,19.457-132.838,35.959-200.738,45.566c-63.637,9.006-130.509,12.432-193.88-0.438
				c-24.112-4.898-50.743-13.982-64.46-35.9c-17.548-28.041,2.263-60.303,20.28-82.285c36.626-44.686,86.867-78.496,137.435-105.426
				c52.608-28.018,108.843-48.955,165.945-65.749c61.619-18.122,125.137-32.962,189.198-38.622
				c34.548-3.052,69.503-3.083,103.934,1.324c24.933,3.191,50.798,7.971,72.68,20.983c17.565,10.446,30.055,27.928,30.345,48.733
				c0.227,16.301-7.811,31.457-17.5,44.047c-24.491,31.82-61.77,53.883-96.551,72.66c-28.792,15.545-58.712,28.914-88.951,41.373
				c-62.684,25.826-127.428,46.715-193.393,62.359c-66.528,15.779-134.479,25.898-202.802,29.053
				c-52.983,2.447-107.137,1.633-159.378-8.453c-39.179-7.564-80.517-20.305-111.431-46.568
				c-14.024-11.914-24.952-27.234-29.926-45.064c-5.815-20.85-2.189-42.932,5.091-62.91c18.052-49.537,54.116-90.115,94.651-122.784
				c41.967-33.823,89.941-60.073,139.475-81.003c40.801-17.24,83.371-31.007,126.978-39.021c44.006-8.087,92.97-11.612,135.343,5.51
				c19.919,8.049,36.961,21.669,48.459,39.874c13.978,22.13,17.375,47.877,11.451,73.174c-6.115,26.116-21.053,49.7-37.643,70.387
				c-16.286,20.311-35.321,38.434-55.548,54.77c-47.596,38.441-104.806,65.766-162.706,84.691
				c-59.758,19.531-122.668,29.648-185.517,30.203c-47.573,0.422-95.96-5.23-141.359-19.791
				c-44.044-14.125-86.718-38.727-111.333-79.111c-13.934-22.861-20.566-49.625-20.197-76.305
				c0.384-27.695,9.051-54.658,21.578-79.142c25.759-50.347,68.345-91.869,113.641-124.84
				C310.925,84.294,441.751,48.985,565.484,60.471c49.13,4.561,98.014,17.019,142.61,38.302
				c42.091,20.087,83.089,50.58,100.766,95.25c8.505,21.492,10.475,45.321,5.533,67.887c-4.831,22.063-16.744,41.864-31.448,58.745
				c-30.922,35.496-74.211,59.354-116.739,78.125c-50.96,22.494-104.99,38.67-159.422,50.188
				c-65.194,13.795-132.274,20.061-198.866,16.303c-32.548-1.836-64.961-6.344-96.697-13.82c-27.563-6.496-54.315-15.779-78.5-30.734
				c-39.868-24.654-68.632-65.732-62.715-114.148c3.389-27.724,17.438-52.422,33.84-74.46c16.264-21.851,35.318-41.541,55.95-59.285
				c42.174-36.273,91.345-63.857,142.362-85.594c51.226-21.826,104.966-37.62,159.403-49.099
				c56.573-11.93,114.174-18.736,172.003-19.487c61.827-0.803,123.998,5.583,183.831,21.455
				c57.696,15.304,115.561,39.975,162.185,77.833c42.52,34.526,75.48,84.401,74.966,140.745
				c-0.524,57.439-38.082,105.671-77.448,143.962c-80.193,78.006-187.641,124.082-292.17,159.367
				c-51.607,17.422-104.057,32.535-156.924,45.627c-59.81,14.811-120.574,26.453-182.028,31.602
				c-60.792,5.094-122.826,3.514-182.288-11.074c-50.887-12.484-104.805-34.502-134.89-79.725
				c-24.981-37.553-26.744-84.5-16.238-127.186c12.257-49.799,40.421-93.588,73.056-132.449
				c76.502-91.099,181.291-155.279,290.84-199.047c114.18-45.618,237.828-70.518,360.813-71.713
				c64.43-0.626,129.234,6.101,191.447,23.231c29.252,8.054,58.064,18.476,85.251,31.992c24.391,12.126,47.831,27.326,66.274,47.569
				c19.524,21.429,30.604,49.121,28.416,78.289c-2.376,31.662-20.427,60.276-40.407,83.923
				c-37.238,44.071-85.146,79.5-134.41,108.961c-99.986,59.797-212.634,96.689-325.064,125.027
				c-68.073,17.158-137.289,30.92-207.532,34.564c-33.954,1.762-68.085,0.914-101.86-3.063c-28.059-3.303-56.145-9.299-81.88-21.246
				c-24.969-11.592-46.515-29.98-59.682-54.35c-11.359-21.025-14.189-45.232-11.146-68.697c6.501-50.123,36.91-95.834,68.318-133.981
				c33.319-40.467,72.963-75.718,115.823-105.78c51.704-36.267,109.487-64.892,170.858-80.393
				c57.427-14.505,120.978-17.449,177.554,2.273c46.931,16.36,88.14,49.659,109.61,94.957c22.723,47.94,18.518,104.671-2.624,152.372
				c-22.417,50.574-64.334,90.447-111.234,118.514c-46.262,27.682-98.306,43.43-151.833,48.52
				c-53.963,5.133-110.227-0.225-160.598-21.035c-49.57-20.482-102.581-62.211-102.949-120.563
				c-0.359-56.82,46.944-104.837,91.887-132.914c104.837-65.493,235.448-85.657,357.202-78.396
				c42.462,2.532,84.921,8.802,125.772,20.85c39.271,11.581,80.464,29.315,107.191,61.567c28.138,33.954,28.887,80.919,8.964,119.15
				c-22.396,42.979-65.996,72.516-108.441,93.234c-37.588,18.35-78.075,30.799-119.663,35.52
				c-39.67,4.502-85.316,4.213-120.769-16.563c-16.93-9.92-29.245-25.393-34.754-44.242c-6.861-23.479-2.608-48.57,7.508-70.4
				c10.927-23.582,28.637-43.678,47.702-61.036c18.782-17.101,39.795-31.768,61.72-44.536
				c49.128-28.609,106.047-47.244,162.975-49.995c53.39-2.58,125.818,12.534,146.914,68.946
				c19.944,53.333-24.588,103.599-64.814,132.361c-46.24,33.061-102.779,51.072-158.369,60.379
				c-39.882,6.676-82.407,9.014-122.198,0.768c-20.037-4.152-40.267-11.926-54.835-26.777c-14.615-14.898-20.37-36.475-17.071-56.85
				c3.664-22.635,18.11-42.309,33.546-58.525c16.9-17.755,36.841-32.561,57.346-45.87c42.107-27.332,88.622-48.397,136.769-62.524
				c28.429-8.341,57.951-13.856,87.65-13.836c28.161,0.019,58.352,5.774,81.751,22.253c19.189,13.514,26.216,34.948,21.33,57.475
				c-4.878,22.491-18.978,42.748-33.992,59.695c-17.795,20.086-39.971,36.094-62.728,50.084
				c-27.004,16.598-56.156,29.672-86.282,39.455c-29.423,9.557-60.007,15.607-90.863,17.82c-25.931,1.857-51.593,0.631-76.721-6.311
				c-20.874-5.766-41.839-15.516-56.367-32.018c-15.845-17.996-17.726-41.721-10.925-63.971
				c15.887-51.975,66.053-87.86,112.229-111.326c36.187-18.39,76.886-32.4,117.442-36.603c17.777-1.842,40.543-2.278,54.356,11.081
				c15.248,14.747,8.271,36.508-3.188,50.907c-14.194,17.836-34.563,30.819-53.974,42.267
				c-20.879,12.313-42.604,22.899-65.047,32.061c-56.344,23-116.997,37.064-177.888,39.107c-25.177,0.844-95.822,0.615-78.522-43.01
				c7.595-19.15,29.251-31.077,46.689-39.665c18.536-9.128,38.201-15.824,57.895-21.958c21.124-6.58,42.7-11.967,64.489-15.821
				c26.767-4.735,55.581-7.391,82.066,0.217c12.031,3.456,24.472,9.897,31.799,20.349c7.01,9.999,4.645,22.191-0.645,32.308
				c-5.879,11.245-15.331,20.651-24.739,28.976c-6.03,5.336-12.404,10.631-19.273,14.865c-22.397,13.811-48.362,23.039-73.005,31.854
				c-34.114,12.205-69.328,22.465-105.221,27.795c-15.703,2.33-31.737,3.648-47.593,2.318c-12.14-1.018-24.893-3.828-34.723-11.408
				c-28.495-21.969-6.397-67.051,10.587-88.388c30.565-38.399,76.315-63.804,119.09-86.221
				c58.478-30.646,120.659-55.355,186.963-61.309c52.139-4.681,117.602,2.028,149.58,49.554
				c31.989,47.543,2.236,107.221-32.072,143.951c-38.817,41.557-90.607,71.059-141.888,94.377
				c-61.056,27.766-126.393,46.268-192.789,55.525c-48.139,6.711-97.596,8.861-145.803,1.498
				c-38.62-5.898-83.216-19.453-103.806-55.648c-24.676-43.379-2.087-97.498,24.457-134.102
				c30.644-42.259,72.881-75.765,115.789-104.821c103.173-69.866,231.551-117.442,357.531-99.86
				c53.861,7.517,107.372,30.495,146.494,68.797c40.09,39.251,61.102,96.272,45.707,151.455
				c-15.667,56.156-62.355,97.693-109.762,128.016c-53.677,34.33-113.383,58.525-174.293,76.629
				c-60.406,17.951-122.553,29.678-184.953,38.08c-49.422,6.656-99.234,11.688-149.134,12.164
				c-52.662,0.504-106.709-4.076-156.482-22.32c-45.275-16.596-94.633-49.043-103.135-100.145
				c-8.288-49.807,23.85-98.605,54.432-134.678c35.224-41.547,78.691-75.431,124.34-104.774
				c107.324-68.988,232-111.132,358.327-126.872c56.956-7.096,115.1-8.724,172.181-2.168c56.997,6.545,114.029,22.385,162.33,54.152
				c24.094,15.845,46.305,35.481,60.417,60.941c13.183,23.782,17.14,51.515,10.868,77.966c-6.808,28.71-25.679,52.245-46.337,72.474
				c-20.428,20.006-43.966,36.664-68.609,51.047c-49.039,28.621-103.054,47.951-157.18,64.451
				c-59.341,18.092-119.607,33.576-180.692,44.52c-67.502,12.092-136.527,18.277-205.042,12.982
				c-32.588-2.518-65.137-7.813-96.589-16.779c-25.381-7.236-50.494-17.285-71.718-33.24c-23.092-17.361-38.247-42.795-41.075-71.709
				c-3.191-32.633,10.874-64.859,28.058-91.756c30.951-48.442,72.405-89.004,118.591-122.894
				c46.765-34.314,98.417-61.757,151.779-84.28c49.868-21.048,101.75-37.862,154.5-50.015
				c53.97-12.434,109.945-19.644,165.347-15.215c54.023,4.319,109.681,21.728,149.16,60.405
				c39.095,38.3,48.895,94.761,34.956,146.362c-14.797,54.784-54.841,98.969-100.202,131.196
				c-46.383,32.953-100.259,54.359-154.74,69.715c-61.381,17.301-124.985,27.443-188.528,32.174
				c-68.691,5.115-138.023,3.039-206.149-7.289c-54.587-8.275-109.782-21.115-159.652-45.426
				c-38.215-18.629-80.066-47.066-91.996-90.355C84.455,283.474,126.823,233.112,163.86,201
				c22.633-19.624,47.95-35.996,73.806-51.008c27.752-16.114,56.389-30.342,85.798-43.177
				c64.854-28.303,132.353-49.026,201.045-65.646C652.562,10.187,787.161-8.771,918.662,8.642
				c32.557,4.311,64.783,11.171,96.174,20.841c25.917,7.984,51.012,18.836,72.891,35.073c19.297,14.319,35.905,33.85,40.523,57.992
				c5.455,28.519-9.291,54.972-26.239,76.65c-33.7,43.107-80.179,74.796-128.072,100.199c-49.12,26.054-101.368,45.79-153.871,63.817
				c-59.923,20.576-120.196,40.133-181.607,55.814c-68.417,17.471-138.034,30.482-208.309,37.592
				c-63.216,6.396-127.514,8.313-190.838,2.299c-43.021-4.086-86.232-11.998-126.664-27.594
				c-39.087-15.078-76.908-39.166-96.976-77.137C-8.112,309.184-0.15,254.932,23.29,211.627
				c25.865-47.784,68.553-85.592,112.979-115.759c50.026-33.969,106.46-58.34,165.119-72.813
				c61.87-15.265,130.002-19.85,192.223-3.759c42.652,11.03,93,33.282,112.214,75.888c21.272,47.173-12.375,98.556-46.113,129.654
				c-36.581,33.718-82.138,57.003-127.341,76.876c-52.146,22.926-107.35,41.984-164.295,47.77
				c-28.975,2.945-58.74,1.848-86.728-6.715c-24.085-7.371-47.764-21.232-57.105-45.816c-7.826-20.597-2.938-43.755,5.018-63.491
				c8.566-21.25,21.763-40.683,36.723-57.928c39.586-45.63,92.61-79.769,148.279-102.341c53.49-21.688,111.664-32.549,169.393-29.837
				c50.998,2.396,107.29,16.24,140.997,57.475c10.457,12.792,17.283,27.87,18.385,44.438c0.973,14.627-3.277,29.118-9.502,42.2
				c-13.429,28.219-37.246,51.155-61.483,70.204c-49.903,39.221-107.343,68.281-166.455,90.847
				c-51.473,19.648-104.858,34.172-158.913,44.688c-43.645,8.49-89.315,14.801-133.695,8.736
				c-20.597-2.814-41.262-8.977-58.188-21.395c-17.191-12.611-28.642-32.338-31.193-53.477c-2.792-23.135,6.012-46.07,17.446-65.729
				c12.63-21.717,29.588-40.834,47.467-58.348c84.8-83.068,199.49-133.526,316.923-146.716
				c124.719-14.009,260.924,15.822,359.602,95.936c44.229,35.908,87.406,89.48,76.248,150.198
				c-9.776,53.2-55.496,91.14-99.943,116.663c-51.349,29.488-109.144,48.795-166.868,61.029
				c-67.386,14.281-137.229,17.635-205.604,9.131c-45.857-5.705-92.792-16.58-133.129-39.883
				c-19.61-11.328-37.354-26.326-49.55-45.574c-12.978-20.482-18.12-45.488-14.49-69.42c7.701-50.772,51.553-89.836,91.02-118.178
				c49.02-35.202,104.596-61.597,161.076-82.383c63.202-23.259,129.323-38.631,196.211-46.288
				c55.036-6.3,112.561-7.908,166.645,5.739c49.479,12.485,97.455,42.539,117.118,91.573c15.774,39.334,4.505,81.694-15.858,117.003
				c-23.215,40.252-57.521,73.914-93.435,102.877c-29.51,23.799-61.942,46.496-96.531,62.33
				c-20.096,9.199-41.038,16.729-61.846,24.123c-32.516,11.555-65.445,21.986-98.714,31.156
				c-36.155,9.967-72.84,18.48-110.007,23.668c-30.422,4.248-62.545,6.998-92.878,0.666c-21.845-4.559-43.032-16.104-48.461-39.336
				c-3.894-16.66,0.442-34.813,6.554-50.334c9.244-23.475,25.094-44.018,42.104-62.377c34.744-37.502,77.137-67.26,119.237-95.838
				c53.945-36.621,110.918-69.085,171.727-92.902c57.331-22.456,119.702-37.643,181.626-35.748
				c45.304,1.386,98.381,13.604,123.616,55.092c34.306,56.401-12.597,114.848-55.451,149.555
				c-49.908,40.42-109.678,67.791-170.134,88.322c-56.729,19.264-115.981,33.809-175.472,41.221
				c-58.326,7.266-121.644,6.877-175.066-20.635c-23.571-12.139-42.797-30.793-52.058-55.959c-8.309-22.578-7.147-47.572-1.298-70.57
				c14.006-55.066,56.146-101.547,99.977-135.551c100.233-77.762,239.691-107.294,361.854-71.419
				c54.087,15.883,109.638,45.688,143.804,91.743c16.452,22.178,26.352,49.273,24.899,77.087
				c-1.395,26.703-15.614,50.307-33.854,69.061c-18.762,19.289-42.045,33.961-65.772,46.334
				c-29.015,15.131-60.426,26.225-91.75,35.461c-63.528,18.732-129.607,27.963-195.542,32.738
				c-63.513,4.598-127.587,2.309-190.674-6.346c-35.616-4.887-71.11-12.029-105.264-23.381c-29.605-9.84-59.164-23.17-82.763-43.977
				c-20.994-18.508-34.689-43.426-35.544-71.701c-1.209-39.977,20.257-79.666,44.924-109.567
				c35.243-42.722,84.331-72.445,134.383-94.721c56.833-25.293,117.678-41.926,179.065-51.438
				c102.973-15.955,210.097-12.548,312.353,7.203c66.151,12.777,133.967,29.592,194.427,60.022
				c24.489,12.326,50.802,28.222,65.282,52.341c14.139,23.551,7.492,49.16-8.377,69.954c-14.671,19.225-34.577,34.745-54.541,48.094
				c-24.181,16.168-50.539,28.922-77.464,39.801c-53.626,21.666-110.295,35.836-166.562,48.76
				c-138.162,31.732-281.131,45.428-422.762,37.727c-40.754-2.217-81.543-4.283-121.786-11.539
				c-40.406-7.287-86.284-19.676-114.343-51.816c-13.104-15.01-20.583-34.432-17.859-54.422c2.891-21.225,16.381-39.75,30.644-54.974
				c29.785-31.791,68.505-54.501,106.141-75.688c101.096-56.91,215.83-96.4,331.75-106.129
				c58.656-4.923,118.389-1.267,175.167,14.834c52.648,14.931,106.341,41.42,144.41,81.532
				c18.566,19.563,32.636,44.209,32.903,71.751c0.24,24.874-12.655,46.931-29.604,64.228c-17.698,18.061-39.825,31.52-62.063,43.211
				c-25.762,13.547-52.637,25.051-79.866,35.281c-65.376,24.564-133.887,40.488-202.997,50.039
				c-54.165,7.486-110.524,15.244-164.957,6.268c-26.131-4.309-51.518-13.545-72.063-30.605
				c-13.409-11.137-24.2-25.982-26.009-43.709c-3.597-35.242,27.665-65.912,52.414-86.207
				c29.971-24.578,64.725-44.238,100.604-58.775c49.894-20.214,106.417-21.008,159.018-12.913
				c29.819,4.589,58.795,12.966,86.987,23.586c23.596,8.889,47.435,19.751,66.407,36.701c18.805,16.797,29.441,41.373,16.546,65.02
				c-11.556,21.189-34.79,35.137-55.201,46.563c-58.932,32.996-126.466,51.004-193.199,58.949
				c-55.066,6.557-115.645,9.682-167.862-12.186c-24.554-10.283-54.51-29.881-54.602-59.586c-0.092-30.061,29.689-50.5,52.836-63.768
				c51.93-29.768,112.819-40.725,171-51.178c71.169-12.787,143.032-22.032,215.365-24.201c39.792-1.193,79.1-0.382,118.401,5.834
				c34.259,5.418,68.656,13.143,100.921,26.074c24.104,9.661,57.056,25.604,61.94,54.297c4.009,23.543-14.446,45.053-31.982,58.219
				c-18.938,14.219-40.96,24.33-62.823,33.133c-61.743,24.861-127.891,39.436-193.439,49.928
				c-71.606,11.463-144.631,17.496-217.16,14.574c-31.206-1.256-62.481-4.305-93.06-10.805
				c-24.705-5.252-49.604-12.857-71.295-26.088c-16.668-10.166-31.246-24.512-37.493-43.389c-8.12-24.535-0.392-52.105,12.505-73.479
				c22.54-37.352,63.675-60.274,102.832-76.454c42.117-17.402,86.837-28.152,131.485-36.722c14.506-2.784,29.064-5.281,43.638-7.685
				C576.045,233.024,576.153,232.663,575.826,232.717L575.826,232.717z"/>
		</g>
	</svg>